<svg xmlns="http://www.w3.org/2000/svg" xmlns:xlink="http://www.w3.org/1999/xlink" width="500" zoomAndPan="magnify" viewBox="0 0 375 374.999991" height="500" preserveAspectRatio="xMidYMid meet" version="1.0"><defs><clipPath id="82e9b4709e"><path d="M 23.074219 15.304688 L 233 15.304688 L 233 351 L 23.074219 351 Z M 23.074219 15.304688 " clip-rule="nonzero"/></clipPath></defs><g clip-path="url(#82e9b4709e)"><path fill="#7f9f80" d="M 211.648438 84.539062 L 211.648438 35.949219 L 97.253906 35.949219 L 168.511719 60.085938 C 172.816406 61.554688 175.648438 65.542969 175.648438 70.058594 L 175.648438 285.203125 L 211.648438 285.203125 L 211.648438 236.609375 C 211.648438 230.734375 216.265625 226.117188 222.140625 226.117188 C 227.914062 226.117188 232.636719 230.734375 232.636719 236.609375 L 232.636719 295.695312 C 232.636719 301.46875 227.914062 306.191406 222.140625 306.191406 L 175.648438 306.191406 L 175.648438 340.300781 C 175.648438 343.660156 174.074219 346.910156 171.347656 348.800781 C 169.457031 350.164062 167.359375 350.796875 165.15625 350.796875 C 164.105469 350.796875 162.953125 350.585938 161.796875 350.269531 L 30.191406 305.667969 C 30.085938 305.5625 29.980469 305.457031 29.769531 305.457031 C 29.457031 305.246094 29.140625 305.039062 28.828125 304.933594 C 27.988281 304.511719 27.359375 303.988281 26.621094 303.464844 C 26.308594 303.148438 26.097656 302.832031 25.785156 302.519531 C 25.257812 301.890625 24.734375 301.257812 24.417969 300.417969 C 24.210938 300.105469 24 299.789062 23.789062 299.371094 C 23.371094 298.214844 23.054688 296.957031 23.054688 295.695312 L 23.054688 25.453125 C 23.054688 24.195312 23.371094 22.933594 23.789062 21.78125 C 23.894531 21.570312 24 21.359375 24.105469 21.152344 C 24.523438 20.101562 25.152344 19.15625 25.992188 18.210938 C 26.203125 18.109375 26.308594 17.898438 26.519531 17.792969 C 26.832031 17.476562 27.148438 17.164062 27.460938 16.953125 C 27.671875 16.742188 28.09375 16.742188 28.300781 16.636719 C 29.140625 16.113281 30.085938 15.695312 31.136719 15.484375 C 31.660156 15.273438 32.183594 15.167969 32.710938 15.167969 C 33.023438 15.0625 33.234375 14.960938 33.550781 14.960938 L 222.140625 14.960938 C 227.914062 14.960938 232.636719 19.683594 232.636719 25.453125 L 232.636719 84.539062 C 232.636719 90.417969 227.914062 95.035156 222.140625 95.035156 C 216.265625 95.035156 211.648438 90.417969 211.648438 84.539062 Z M 211.648438 84.539062 " fill-opacity="1" fill-rule="nonzero"/></g><path fill="#7f9f80" d="M 358.050781 164.742188 C 358.0625 164.710938 358.09375 164.699219 358.101562 164.667969 C 358.640625 163.410156 358.941406 162.023438 358.941406 160.566406 C 358.941406 159.105469 358.640625 157.722656 358.101562 156.460938 C 358.09375 156.429688 358.0625 156.417969 358.050781 156.386719 C 357.503906 155.140625 356.738281 154.027344 355.785156 153.082031 C 355.761719 153.0625 355.753906 153.03125 355.730469 153.007812 L 307.9375 106.90625 C 303.773438 102.894531 297.140625 103 293.097656 107.167969 C 289.066406 111.332031 289.195312 117.988281 293.359375 122.007812 L 322.441406 150.058594 L 220.390625 150.058594 C 214.585938 150.058594 209.894531 154.761719 209.894531 160.554688 C 209.894531 166.347656 214.585938 171.050781 220.390625 171.050781 L 322.441406 171.050781 L 293.359375 199.101562 C 289.195312 203.121094 289.066406 209.777344 293.097656 213.941406 C 295.15625 216.082031 297.90625 217.152344 300.65625 217.152344 C 303.277344 217.152344 305.902344 216.175781 307.9375 214.214844 L 355.730469 168.109375 C 355.753906 168.089844 355.761719 168.058594 355.785156 168.039062 C 356.730469 167.101562 357.503906 165.992188 358.050781 164.742188 Z M 358.050781 164.742188 " fill-opacity="1" fill-rule="nonzero"/></svg>