<svg xmlns="http://www.w3.org/2000/svg" xmlns:xlink="http://www.w3.org/1999/xlink" width="500" zoomAndPan="magnify" viewBox="0 0 375 374.999991" height="500" preserveAspectRatio="xMidYMid meet" version="1.0"><defs><clipPath id="a0e0434d9f"><path d="M 69 29.339844 L 305.878906 29.339844 L 305.878906 345.839844 L 69 345.839844 Z M 69 29.339844 " clip-rule="nonzero"/></clipPath></defs><g clip-path="url(#a0e0434d9f)"><path fill="#6e9277" d="M 289.546875 66.140625 L 247.03125 66.140625 L 247.03125 46.621094 C 247.03125 46.066406 247.003906 45.515625 246.949219 44.964844 C 246.894531 44.414062 246.8125 43.867188 246.703125 43.324219 C 246.59375 42.78125 246.460938 42.246094 246.300781 41.714844 C 246.136719 41.1875 245.953125 40.667969 245.738281 40.15625 C 245.527344 39.644531 245.292969 39.144531 245.03125 38.65625 C 244.769531 38.167969 244.484375 37.695312 244.175781 37.234375 C 243.871094 36.773438 243.539062 36.328125 243.1875 35.902344 C 242.835938 35.472656 242.464844 35.0625 242.074219 34.671875 C 241.683594 34.28125 241.273438 33.910156 240.847656 33.558594 C 240.417969 33.207031 239.972656 32.878906 239.515625 32.570312 C 239.054688 32.261719 238.578125 31.980469 238.09375 31.71875 C 237.605469 31.457031 237.105469 31.21875 236.59375 31.007812 C 236.082031 30.796875 235.5625 30.609375 235.03125 30.449219 C 234.503906 30.289062 233.964844 30.152344 233.421875 30.042969 C 232.878906 29.9375 232.332031 29.855469 231.78125 29.800781 C 231.230469 29.746094 230.679688 29.71875 230.125 29.714844 L 145.433594 29.714844 C 144.882812 29.71875 144.328125 29.746094 143.777344 29.800781 C 143.226562 29.855469 142.679688 29.9375 142.136719 30.042969 C 141.59375 30.152344 141.058594 30.289062 140.527344 30.449219 C 140 30.609375 139.480469 30.796875 138.96875 31.007812 C 138.457031 31.21875 137.957031 31.457031 137.46875 31.71875 C 136.980469 31.980469 136.507812 32.261719 136.046875 32.570312 C 135.585938 32.878906 135.144531 33.207031 134.714844 33.558594 C 134.289062 33.910156 133.878906 34.28125 133.484375 34.671875 C 133.09375 35.0625 132.722656 35.472656 132.371094 35.902344 C 132.019531 36.328125 131.691406 36.773438 131.382812 37.234375 C 131.078125 37.695312 130.792969 38.167969 130.53125 38.65625 C 130.269531 39.144531 130.035156 39.644531 129.820312 40.15625 C 129.609375 40.667969 129.421875 41.1875 129.261719 41.714844 C 129.101562 42.246094 128.964844 42.78125 128.855469 43.324219 C 128.75 43.867188 128.667969 44.414062 128.613281 44.964844 C 128.558594 45.515625 128.53125 46.066406 128.53125 46.621094 L 128.53125 66.140625 L 86.011719 66.140625 C 85.457031 66.140625 84.90625 66.167969 84.355469 66.222656 C 83.804688 66.277344 83.257812 66.359375 82.714844 66.46875 C 82.171875 66.578125 81.636719 66.710938 81.105469 66.871094 C 80.574219 67.035156 80.054688 67.21875 79.542969 67.433594 C 79.035156 67.644531 78.535156 67.882812 78.046875 68.140625 C 77.558594 68.402344 77.082031 68.6875 76.625 68.996094 C 76.164062 69.304688 75.71875 69.632812 75.292969 69.984375 C 74.863281 70.335938 74.453125 70.707031 74.0625 71.097656 C 73.671875 71.488281 73.300781 71.898438 72.949219 72.324219 C 72.597656 72.753906 72.269531 73.199219 71.960938 73.65625 C 71.652344 74.117188 71.367188 74.59375 71.109375 75.082031 C 70.847656 75.566406 70.609375 76.066406 70.398438 76.578125 C 70.183594 77.089844 70 77.609375 69.839844 78.140625 C 69.675781 78.667969 69.542969 79.207031 69.433594 79.75 C 69.324219 80.292969 69.242188 80.839844 69.1875 81.390625 C 69.132812 81.941406 69.105469 82.492188 69.105469 83.046875 L 69.105469 95.441406 C 69.125 96.078125 69.175781 96.710938 69.261719 97.339844 C 69.347656 97.96875 69.464844 98.59375 69.617188 99.210938 C 69.773438 99.828125 69.957031 100.433594 70.175781 101.03125 C 70.394531 101.628906 70.644531 102.210938 70.925781 102.78125 C 71.207031 103.351562 71.519531 103.902344 71.859375 104.441406 C 72.199219 104.976562 72.570312 105.492188 72.964844 105.988281 C 73.363281 106.488281 73.785156 106.960938 74.230469 107.410156 C 74.679688 107.863281 75.152344 108.289062 75.644531 108.6875 C 76.136719 109.089844 76.652344 109.460938 77.183594 109.804688 C 77.71875 110.152344 78.269531 110.464844 78.839844 110.75 C 79.40625 111.039062 79.988281 111.292969 80.582031 111.515625 C 81.179688 111.738281 81.785156 111.925781 82.398438 112.085938 C 83.015625 112.242188 83.636719 112.367188 84.265625 112.457031 C 84.894531 112.546875 85.527344 112.601562 86.164062 112.625 C 86.796875 112.648438 87.433594 112.632812 88.066406 112.589844 C 88.699219 112.542969 89.332031 112.460938 89.957031 112.347656 L 99.929688 318.464844 C 99.972656 319.355469 100.054688 320.246094 100.183594 321.132812 C 100.3125 322.019531 100.480469 322.894531 100.691406 323.765625 C 100.902344 324.632812 101.152344 325.492188 101.445312 326.335938 C 101.738281 327.183594 102.070312 328.011719 102.441406 328.828125 C 102.8125 329.640625 103.222656 330.433594 103.671875 331.210938 C 104.117188 331.984375 104.601562 332.734375 105.121094 333.464844 C 105.640625 334.195312 106.191406 334.894531 106.777344 335.570312 C 107.363281 336.246094 107.980469 336.894531 108.628906 337.511719 C 109.277344 338.128906 109.953125 338.714844 110.65625 339.265625 C 111.359375 339.820312 112.089844 340.335938 112.84375 340.820312 C 113.59375 341.304688 114.371094 341.75 115.164062 342.160156 C 115.960938 342.566406 116.773438 342.9375 117.605469 343.269531 C 118.4375 343.601562 119.28125 343.894531 120.140625 344.144531 C 120.996094 344.394531 121.867188 344.605469 122.746094 344.773438 C 123.625 344.941406 124.507812 345.070312 125.398438 345.152344 C 126.289062 345.238281 127.183594 345.277344 128.078125 345.277344 L 247.480469 345.277344 C 248.375 345.277344 249.269531 345.238281 250.160156 345.152344 C 251.050781 345.070312 251.933594 344.941406 252.8125 344.773438 C 253.691406 344.605469 254.558594 344.394531 255.417969 344.144531 C 256.277344 343.890625 257.121094 343.601562 257.953125 343.269531 C 258.78125 342.9375 259.59375 342.566406 260.390625 342.15625 C 261.1875 341.746094 261.960938 341.300781 262.714844 340.816406 C 263.464844 340.335938 264.195312 339.816406 264.898438 339.265625 C 265.601562 338.710938 266.277344 338.125 266.925781 337.507812 C 267.570312 336.894531 268.1875 336.246094 268.773438 335.570312 C 269.359375 334.894531 269.914062 334.191406 270.433594 333.464844 C 270.953125 332.734375 271.433594 331.984375 271.882812 331.207031 C 272.328125 330.433594 272.738281 329.640625 273.109375 328.824219 C 273.484375 328.011719 273.816406 327.183594 274.105469 326.335938 C 274.398438 325.492188 274.652344 324.632812 274.863281 323.765625 C 275.074219 322.894531 275.242188 322.019531 275.367188 321.132812 C 275.496094 320.246094 275.582031 319.359375 275.625 318.464844 L 285.597656 112.347656 C 286.222656 112.460938 286.851562 112.539062 287.484375 112.585938 C 288.121094 112.632812 288.753906 112.644531 289.390625 112.621094 C 290.023438 112.601562 290.65625 112.542969 291.285156 112.453125 C 291.914062 112.363281 292.539062 112.238281 293.152344 112.082031 C 293.769531 111.925781 294.375 111.734375 294.96875 111.511719 C 295.566406 111.289062 296.148438 111.035156 296.714844 110.75 C 297.28125 110.464844 297.832031 110.148438 298.367188 109.804688 C 298.902344 109.460938 299.414062 109.085938 299.910156 108.6875 C 300.402344 108.285156 300.871094 107.859375 301.320312 107.410156 C 301.769531 106.957031 302.191406 106.484375 302.585938 105.988281 C 302.984375 105.492188 303.351562 104.976562 303.695312 104.4375 C 304.035156 103.902344 304.347656 103.347656 304.628906 102.78125 C 304.910156 102.210938 305.160156 101.625 305.375 101.027344 C 305.59375 100.433594 305.78125 99.824219 305.933594 99.207031 C 306.085938 98.589844 306.207031 97.96875 306.292969 97.339844 C 306.378906 96.707031 306.429688 96.078125 306.445312 95.441406 L 306.445312 83.042969 C 306.445312 82.492188 306.417969 81.9375 306.363281 81.386719 C 306.308594 80.835938 306.226562 80.289062 306.117188 79.75 C 306.011719 79.207031 305.875 78.667969 305.714844 78.140625 C 305.554688 77.609375 305.367188 77.089844 305.15625 76.578125 C 304.941406 76.066406 304.707031 75.570312 304.445312 75.082031 C 304.183594 74.59375 303.898438 74.117188 303.59375 73.660156 C 303.285156 73.199219 302.957031 72.753906 302.605469 72.328125 C 302.253906 71.898438 301.882812 71.488281 301.492188 71.097656 C 301.101562 70.707031 300.691406 70.335938 300.261719 69.984375 C 299.835938 69.632812 299.390625 69.304688 298.933594 68.996094 C 298.472656 68.6875 298 68.40625 297.511719 68.144531 C 297.023438 67.882812 296.523438 67.644531 296.011719 67.433594 C 295.5 67.222656 294.980469 67.035156 294.453125 66.875 C 293.921875 66.710938 293.386719 66.578125 292.84375 66.46875 C 292.300781 66.359375 291.753906 66.277344 291.203125 66.222656 C 290.652344 66.167969 290.101562 66.140625 289.546875 66.140625 Z M 139.800781 46.621094 C 139.800781 46.25 139.835938 45.886719 139.910156 45.523438 C 139.980469 45.160156 140.089844 44.808594 140.230469 44.464844 C 140.371094 44.125 140.546875 43.800781 140.75 43.492188 C 140.957031 43.183594 141.191406 42.898438 141.453125 42.636719 C 141.714844 42.375 141.996094 42.144531 142.304688 41.9375 C 142.613281 41.730469 142.9375 41.558594 143.277344 41.417969 C 143.621094 41.273438 143.972656 41.167969 144.335938 41.09375 C 144.699219 41.023438 145.066406 40.988281 145.433594 40.984375 L 230.125 40.984375 C 230.496094 40.988281 230.859375 41.023438 231.222656 41.09375 C 231.585938 41.167969 231.9375 41.273438 232.28125 41.417969 C 232.621094 41.558594 232.945312 41.730469 233.253906 41.9375 C 233.5625 42.144531 233.847656 42.375 234.105469 42.636719 C 234.367188 42.898438 234.601562 43.183594 234.808594 43.492188 C 235.015625 43.800781 235.1875 44.125 235.328125 44.464844 C 235.472656 44.808594 235.578125 45.160156 235.648438 45.523438 C 235.722656 45.886719 235.757812 46.25 235.757812 46.621094 L 235.757812 66.140625 L 139.800781 66.140625 Z M 264.363281 317.921875 C 264.3125 318.996094 264.160156 320.058594 263.90625 321.101562 C 263.65625 322.148438 263.304688 323.160156 262.855469 324.140625 C 262.410156 325.117188 261.875 326.042969 261.25 326.921875 C 260.625 327.796875 259.925781 328.605469 259.144531 329.347656 C 258.367188 330.089844 257.523438 330.753906 256.621094 331.332031 C 255.714844 331.914062 254.761719 332.40625 253.761719 332.804688 C 252.765625 333.203125 251.734375 333.503906 250.679688 333.707031 C 249.621094 333.90625 248.554688 334.007812 247.480469 334.007812 L 128.078125 334.007812 C 127.003906 334.007812 125.9375 333.90625 124.878906 333.707031 C 123.824219 333.503906 122.792969 333.203125 121.796875 332.804688 C 120.796875 332.402344 119.84375 331.914062 118.9375 331.332031 C 118.03125 330.75 117.191406 330.089844 116.410156 329.347656 C 115.632812 328.605469 114.929688 327.796875 114.308594 326.917969 C 113.683594 326.042969 113.148438 325.117188 112.699219 324.136719 C 112.253906 323.15625 111.902344 322.144531 111.652344 321.101562 C 111.398438 320.054688 111.246094 318.992188 111.195312 317.917969 L 101.246094 112.347656 L 274.3125 112.347656 Z M 295.183594 95.441406 C 295.183594 95.8125 295.144531 96.175781 295.074219 96.539062 C 295 96.902344 294.894531 97.253906 294.753906 97.597656 C 294.609375 97.9375 294.4375 98.261719 294.230469 98.570312 C 294.027344 98.878906 293.792969 99.160156 293.53125 99.421875 C 293.269531 99.683594 292.984375 99.917969 292.675781 100.125 C 292.371094 100.328125 292.046875 100.503906 291.703125 100.644531 C 291.363281 100.785156 291.007812 100.894531 290.648438 100.964844 C 290.285156 101.039062 289.917969 101.074219 289.546875 101.074219 L 86.011719 101.074219 C 85.640625 101.074219 85.273438 101.039062 84.910156 100.964844 C 84.550781 100.894531 84.195312 100.785156 83.855469 100.644531 C 83.515625 100.503906 83.1875 100.328125 82.882812 100.125 C 82.574219 99.917969 82.289062 99.683594 82.027344 99.421875 C 81.765625 99.160156 81.53125 98.878906 81.328125 98.570312 C 81.121094 98.261719 80.949219 97.9375 80.804688 97.597656 C 80.664062 97.253906 80.558594 96.902344 80.484375 96.539062 C 80.414062 96.175781 80.375 95.8125 80.375 95.441406 L 80.375 83.042969 C 80.375 82.675781 80.414062 82.308594 80.484375 81.945312 C 80.558594 81.582031 80.664062 81.230469 80.804688 80.886719 C 80.949219 80.546875 81.121094 80.222656 81.328125 79.914062 C 81.53125 79.605469 81.765625 79.324219 82.027344 79.0625 C 82.289062 78.800781 82.574219 78.566406 82.882812 78.359375 C 83.1875 78.15625 83.515625 77.980469 83.855469 77.839844 C 84.195312 77.699219 84.550781 77.589844 84.910156 77.519531 C 85.273438 77.445312 85.640625 77.410156 86.011719 77.410156 L 289.546875 77.410156 C 289.917969 77.410156 290.285156 77.445312 290.648438 77.519531 C 291.007812 77.589844 291.363281 77.699219 291.703125 77.839844 C 292.046875 77.980469 292.371094 78.15625 292.675781 78.359375 C 292.984375 78.566406 293.269531 78.800781 293.53125 79.0625 C 293.792969 79.324219 294.027344 79.605469 294.230469 79.914062 C 294.4375 80.222656 294.609375 80.546875 294.753906 80.886719 C 294.894531 81.230469 295 81.582031 295.074219 81.945312 C 295.144531 82.308594 295.183594 82.675781 295.183594 83.042969 Z M 295.183594 95.441406 " fill-opacity="1" fill-rule="nonzero"/></g><path fill="#6e9277" d="M 187.78125 287.046875 C 188.148438 287.046875 188.515625 287.007812 188.878906 286.9375 C 189.242188 286.863281 189.59375 286.757812 189.9375 286.617188 C 190.277344 286.472656 190.601562 286.300781 190.910156 286.09375 C 191.21875 285.890625 191.503906 285.65625 191.765625 285.394531 C 192.027344 285.132812 192.257812 284.847656 192.464844 284.539062 C 192.671875 284.234375 192.84375 283.910156 192.984375 283.566406 C 193.128906 283.226562 193.234375 282.871094 193.304688 282.507812 C 193.378906 282.148438 193.414062 281.78125 193.414062 281.410156 L 193.414062 164.941406 C 193.414062 164.574219 193.378906 164.207031 193.304688 163.84375 C 193.234375 163.480469 193.128906 163.128906 192.984375 162.785156 C 192.84375 162.445312 192.671875 162.121094 192.464844 161.8125 C 192.257812 161.503906 192.027344 161.21875 191.765625 160.957031 C 191.503906 160.695312 191.21875 160.464844 190.910156 160.257812 C 190.601562 160.050781 190.277344 159.878906 189.9375 159.738281 C 189.59375 159.59375 189.242188 159.488281 188.878906 159.417969 C 188.515625 159.34375 188.148438 159.308594 187.78125 159.308594 C 187.410156 159.308594 187.042969 159.34375 186.679688 159.417969 C 186.316406 159.488281 185.964844 159.59375 185.621094 159.738281 C 185.28125 159.878906 184.957031 160.050781 184.648438 160.257812 C 184.339844 160.464844 184.054688 160.695312 183.792969 160.957031 C 183.53125 161.21875 183.300781 161.503906 183.09375 161.8125 C 182.886719 162.121094 182.714844 162.445312 182.574219 162.785156 C 182.433594 163.128906 182.324219 163.480469 182.253906 163.84375 C 182.179688 164.207031 182.144531 164.574219 182.144531 164.941406 L 182.144531 281.410156 C 182.144531 281.78125 182.179688 282.148438 182.253906 282.507812 C 182.324219 282.871094 182.433594 283.226562 182.574219 283.566406 C 182.714844 283.910156 182.886719 284.234375 183.09375 284.539062 C 183.300781 284.847656 183.53125 285.132812 183.792969 285.394531 C 184.054688 285.65625 184.339844 285.890625 184.648438 286.09375 C 184.957031 286.300781 185.28125 286.472656 185.621094 286.617188 C 185.964844 286.757812 186.316406 286.863281 186.679688 286.9375 C 187.042969 287.007812 187.410156 287.046875 187.78125 287.046875 Z M 187.78125 287.046875 " fill-opacity="1" fill-rule="nonzero"/><path fill="#6e9277" d="M 232.859375 287.046875 C 233.230469 287.046875 233.597656 287.007812 233.957031 286.9375 C 234.320312 286.863281 234.675781 286.757812 235.015625 286.617188 C 235.359375 286.472656 235.683594 286.300781 235.988281 286.09375 C 236.296875 285.890625 236.582031 285.65625 236.84375 285.394531 C 237.105469 285.132812 237.339844 284.847656 237.542969 284.539062 C 237.75 284.234375 237.925781 283.910156 238.066406 283.566406 C 238.207031 283.226562 238.3125 282.871094 238.386719 282.507812 C 238.457031 282.148438 238.496094 281.78125 238.496094 281.410156 L 238.496094 164.941406 C 238.496094 164.574219 238.457031 164.207031 238.386719 163.84375 C 238.3125 163.480469 238.207031 163.128906 238.066406 162.785156 C 237.925781 162.445312 237.75 162.121094 237.542969 161.8125 C 237.339844 161.503906 237.105469 161.21875 236.84375 160.957031 C 236.582031 160.695312 236.296875 160.464844 235.988281 160.257812 C 235.683594 160.050781 235.359375 159.878906 235.015625 159.738281 C 234.675781 159.59375 234.320312 159.488281 233.957031 159.417969 C 233.597656 159.34375 233.230469 159.308594 232.859375 159.308594 C 232.488281 159.308594 232.125 159.34375 231.761719 159.417969 C 231.398438 159.488281 231.046875 159.59375 230.703125 159.738281 C 230.359375 159.878906 230.035156 160.050781 229.730469 160.257812 C 229.421875 160.464844 229.136719 160.695312 228.875 160.957031 C 228.613281 161.21875 228.378906 161.503906 228.175781 161.8125 C 227.96875 162.121094 227.796875 162.445312 227.652344 162.785156 C 227.511719 163.128906 227.40625 163.480469 227.332031 163.84375 C 227.261719 164.207031 227.222656 164.574219 227.222656 164.941406 L 227.222656 281.410156 C 227.222656 281.78125 227.261719 282.148438 227.332031 282.507812 C 227.40625 282.871094 227.511719 283.226562 227.652344 283.566406 C 227.796875 283.910156 227.96875 284.234375 228.175781 284.539062 C 228.378906 284.847656 228.613281 285.132812 228.875 285.394531 C 229.136719 285.65625 229.421875 285.890625 229.730469 286.09375 C 230.035156 286.300781 230.359375 286.472656 230.703125 286.617188 C 231.046875 286.757812 231.398438 286.863281 231.761719 286.9375 C 232.125 287.007812 232.488281 287.046875 232.859375 287.046875 Z M 232.859375 287.046875 " fill-opacity="1" fill-rule="nonzero"/><path fill="#6e9277" d="M 142.699219 287.046875 C 143.070312 287.046875 143.4375 287.007812 143.796875 286.9375 C 144.160156 286.863281 144.515625 286.757812 144.855469 286.617188 C 145.199219 286.472656 145.523438 286.300781 145.828125 286.09375 C 146.136719 285.890625 146.421875 285.65625 146.683594 285.394531 C 146.945312 285.132812 147.179688 284.847656 147.382812 284.539062 C 147.589844 284.234375 147.765625 283.910156 147.90625 283.566406 C 148.046875 283.226562 148.152344 282.871094 148.226562 282.507812 C 148.296875 282.148438 148.335938 281.78125 148.335938 281.410156 L 148.335938 164.941406 C 148.335938 164.574219 148.296875 164.207031 148.226562 163.84375 C 148.152344 163.480469 148.046875 163.128906 147.90625 162.785156 C 147.765625 162.445312 147.589844 162.121094 147.382812 161.8125 C 147.179688 161.503906 146.945312 161.21875 146.683594 160.957031 C 146.421875 160.695312 146.136719 160.464844 145.828125 160.257812 C 145.523438 160.050781 145.199219 159.878906 144.855469 159.738281 C 144.515625 159.59375 144.160156 159.488281 143.796875 159.417969 C 143.4375 159.34375 143.070312 159.308594 142.699219 159.308594 C 142.328125 159.308594 141.960938 159.34375 141.601562 159.417969 C 141.238281 159.488281 140.882812 159.59375 140.542969 159.738281 C 140.199219 159.878906 139.875 160.050781 139.570312 160.257812 C 139.261719 160.464844 138.976562 160.695312 138.714844 160.957031 C 138.453125 161.21875 138.21875 161.503906 138.015625 161.8125 C 137.808594 162.121094 137.632812 162.445312 137.492188 162.785156 C 137.351562 163.128906 137.246094 163.480469 137.171875 163.84375 C 137.101562 164.207031 137.0625 164.574219 137.0625 164.941406 L 137.0625 281.410156 C 137.0625 281.78125 137.101562 282.148438 137.171875 282.507812 C 137.246094 282.871094 137.351562 283.226562 137.492188 283.566406 C 137.632812 283.910156 137.808594 284.234375 138.015625 284.539062 C 138.21875 284.847656 138.453125 285.132812 138.714844 285.394531 C 138.976562 285.65625 139.261719 285.890625 139.570312 286.09375 C 139.875 286.300781 140.199219 286.472656 140.542969 286.617188 C 140.882812 286.757812 141.238281 286.863281 141.601562 286.9375 C 141.960938 287.007812 142.328125 287.046875 142.699219 287.046875 Z M 142.699219 287.046875 " fill-opacity="1" fill-rule="nonzero"/></svg>