<svg xmlns="http://www.w3.org/2000/svg" xmlns:xlink="http://www.w3.org/1999/xlink" width="500" zoomAndPan="magnify" viewBox="0 0 375 374.999991" height="500" preserveAspectRatio="xMidYMid meet" version="1.0"><defs><clipPath id="37dbedaf48"><path d="M 19.046875 59 L 295 59 L 295 334.738281 L 19.046875 334.738281 Z M 19.046875 59 " clip-rule="nonzero"/></clipPath></defs><path fill="#7f9f80" d="M 115.109375 241.554688 C 113.757812 241.554688 112.464844 241.015625 111.492188 240.042969 C 110.144531 238.640625 109.65625 236.644531 110.25 234.753906 L 138.53125 151.269531 C 139.070312 149.59375 140.472656 148.300781 142.199219 147.921875 C 143.925781 147.488281 145.761719 148.03125 147.003906 149.269531 L 202.210938 204.640625 C 203.453125 205.882812 203.992188 207.714844 203.558594 209.445312 C 203.128906 211.171875 201.886719 212.574219 200.214844 213.113281 L 116.671875 241.285156 C 116.132812 241.445312 115.59375 241.554688 115.054688 241.554688 Z M 145.652344 162.382812 L 123.3125 228.277344 L 189.203125 206.097656 L 145.652344 162.4375 Z M 145.652344 162.382812 " fill-opacity="1" fill-rule="nonzero"/><path fill="#7f9f80" d="M 198.648438 213.382812 C 197.300781 213.382812 196.003906 212.84375 195.035156 211.871094 L 139.824219 156.503906 C 137.828125 154.503906 137.828125 151.269531 139.824219 149.269531 L 269.507812 19.695312 C 274.957031 14.136719 282.296875 11.0625 290.175781 11.0625 C 298.054688 11.0625 305.394531 14.136719 310.898438 19.695312 L 331.945312 40.636719 C 337.558594 46.25 340.582031 53.695312 340.582031 61.574219 C 340.582031 69.398438 337.453125 76.738281 331.945312 82.191406 L 202.265625 211.871094 C 201.292969 212.84375 200 213.382812 198.648438 213.382812 Z M 150.671875 152.886719 L 198.648438 201.023438 L 324.769531 74.957031 C 328.386719 71.398438 330.382812 66.648438 330.382812 61.574219 C 330.382812 56.394531 328.386719 51.589844 324.769531 47.921875 L 303.667969 26.980469 C 296.492188 19.695312 283.917969 19.75 276.792969 26.980469 L 150.671875 152.941406 Z M 150.671875 152.886719 " fill-opacity="1" fill-rule="nonzero"/><path fill="#7f9f80" d="M 313.21875 98.8125 C 311.871094 98.8125 310.574219 98.273438 309.605469 97.300781 L 254.398438 41.929688 C 253.425781 40.960938 252.886719 39.664062 252.886719 38.316406 C 252.886719 36.964844 253.425781 35.671875 254.398438 34.699219 L 269.5625 19.695312 C 275.011719 14.191406 282.351562 11.117188 290.230469 11.117188 C 298.109375 11.117188 305.449219 14.191406 310.953125 19.75 L 332 40.691406 C 343.441406 52.128906 343.441406 70.75 332 82.191406 L 316.835938 97.355469 C 315.863281 98.328125 314.570312 98.867188 313.21875 98.867188 Z M 265.242188 38.316406 L 313.21875 86.398438 L 324.714844 74.90625 C 332.164062 67.457031 332.164062 55.316406 324.714844 47.867188 L 303.613281 26.929688 C 296.4375 19.644531 283.863281 19.695312 276.738281 26.929688 L 265.191406 38.371094 Z M 265.242188 38.316406 " fill-opacity="1" fill-rule="nonzero"/><g clip-path="url(#37dbedaf48)"><path fill="#7f9f80" d="M 260.765625 334.699219 L 52.886719 334.699219 C 34.265625 334.699219 19.15625 319.644531 19.15625 301.132812 L 19.15625 93.089844 C 19.15625 74.582031 34.265625 59.523438 52.886719 59.523438 L 196.8125 59.523438 C 199.621094 59.523438 201.941406 61.84375 201.941406 64.652344 C 201.941406 67.457031 199.675781 69.777344 196.8125 69.777344 L 52.886719 69.777344 C 39.933594 69.777344 29.410156 80.246094 29.410156 93.089844 L 29.410156 301.132812 C 29.410156 313.976562 39.933594 324.445312 52.886719 324.445312 L 260.765625 324.445312 C 273.71875 324.445312 284.242188 313.976562 284.242188 301.132812 L 284.242188 153.535156 C 284.242188 150.726562 286.507812 148.40625 289.367188 148.40625 C 292.226562 148.40625 294.492188 150.726562 294.492188 153.535156 L 294.492188 301.132812 C 294.492188 319.644531 279.382812 334.699219 260.765625 334.699219 Z M 260.765625 334.699219 " fill-opacity="1" fill-rule="nonzero"/></g></svg>